{"accessors":[{"bufferView":23,"byteOffset":0,"componentType":5125,"count":10248,"type":"SCALAR"},{"bufferView":24,"byteOffset":0,"componentType":5126,"count":2058,"max":[0.8800880908966064,1.459472298622131,0.1312421411275864],"min":[-0.8800868988037109,0.08137977123260498,-0.09019005298614502],"type":"VEC3"},{"bufferView":25,"byteOffset":0,"componentType":5126,"count":2058,"type":"VEC3"},{"bufferView":26,"byteOffset":0,"componentType":5126,"count":2058,"type":"VEC2"},{"bufferView":27,"byteOffset":0,"componentType":5123,"count":2058,"type":"VEC4"},{"bufferView":28,"byteOffset":0,"componentType":5126,"count":2058,"type":"VEC4"},{"bufferView":29,"byteOffset":0,"componentType":5125,"count":14700,"type":"SCALAR"},{"bufferView":30,"byteOffset":0,"componentType":5126,"count":6300,"max":[0.04854854568839073,1.690316796302795,0.1137396842241287],"min":[-0.04918213188648224,1.671234488487244,0.09537118673324585],"type":"VEC3"},{"bufferView":31,"byteOffset":0,"componentType":5126,"count":6300,"type":"VEC3"},{"bufferView":32,"byteOffset":0,"componentType":5126,"count":6300,"type":"VEC2"},{"bufferView":33,"byteOffset":0,"componentType":5126,"count":6300,"max":[6.075948476791382e-05,0,0.0001446455717086792],"min":[-3.010965883731842e-05,-0.0001426041126251221,0],"type":"VEC3"},{"bufferView":33,"byteOffset":75600,"componentType":5126,"count":6300,"max":[0.0001987442374229431,0.0001003742218017578,0.0001442506909370422],"min":[-4.263967275619507e-05,-0.0001422762870788574,0],"type":"VEC3"},{"bufferView":33,"byteOffset":151200,"componentType":5126,"count":6300,"max":[0.0001752804964780807,0.001107066869735718,0.0003378167748451233],"min":[-0.0003427322953939438,-9.751319885253906e-05,-0.00120360404253006],"type":"VEC3"},{"bufferView":33,"byteOffset":226800,"componentType":5126,"count":6300,"max":[0.0001923106610774994,0.001000404357910156,0],"min":[-6.40377402305603e-06,0,-0.000507548451423645],"type":"VEC3"},{"bufferView":33,"byteOffset":302400,"componentType":5126,"count":6300,"max":[7.150694727897644e-06,0.001000642776489258,0],"min":[-0.0001801848411560059,0,-0.0005079805850982666],"type":"VEC3"},{"bufferView":33,"byteOffset":378000,"componentType":5126,"count":6300,"max":[0.0001894719898700714,0.002430558204650879,0.001326598227024078],"min":[-0.0001795105636119843,0,0],"type":"VEC3"},{"bufferView":33,"byteOffset":453600,"componentType":5126,"count":6300,"max":[0.0001792497932910919,0.00243079662322998,0.001326374709606171],"min":[-0.0001889895647764206,0,0],"type":"VEC3"},{"bufferView":33,"byteOffset":529200,"componentType":5126,"count":6300,"max":[0.0009076520800590515,0,0.0007873103022575378],"min":[-0.0007342323660850525,-0.01146376132965088,-0.001273550093173981],"type":"VEC3"},{"bufferView":33,"byteOffset":604800,"componentType":5126,"count":6300,"max":[0.0007344949990510941,0,0.0007873699069023132],"min":[-0.0009072460234165192,-0.01146352291107178,-0.001273572444915771],"type":"VEC3"},{"bufferView":33,"byteOffset":680400,"componentType":5126,"count":6300,"max":[0.0005316212773323059,0,0.001016609370708466],"min":[-0.001139391213655472,-0.006784677505493164,-0.001971371471881866],"type":"VEC3"},{"bufferView":33,"byteOffset":756000,"componentType":5126,"count":6300,"max":[0.001139670610427856,0,0.00101490318775177],"min":[-0.0005312897264957428,-0.006784319877624512,-0.001971356570720673],"type":"VEC3"},{"bufferView":33,"byteOffset":831600,"componentType":5126,"count":6300,"max":[0,0.0005776882171630859,0.001477859914302826],"min":[-0.002034615725278854,-0.0003894567489624023,-0.001007676124572754],"type":"VEC3"},{"bufferView":33,"byteOffset":907200,"componentType":5126,"count":6300,"max":[0.002034790813922882,0.0005779266357421875,0.001478053629398346],"min":[0,-0.0003896951675415039,-0.001007691025733948],"type":"VEC3"},{"bufferView":33,"byteOffset":982800,"componentType":5126,"count":6300,"max":[0.002301763743162155,0.000397801399230957,0.001002177596092224],"min":[0,-0.0008261203765869141,-0.001085035502910614],"type":"VEC3"},{"bufferView":33,"byteOffset":1058400,"componentType":5126,"count":6300,"max":[0,0.000397801399230957,0.001002028584480286],"min":[-0.002288125455379486,-0.0008252859115600586,-0.001083947718143463],"type":"VEC3"},{"bufferView":33,"byteOffset":1134000,"componentType":5126,"count":6300,"max":[0.001343399286270142,0.003865718841552734,0.001442588865756989],"min":[-0.0006079915910959244,0,-0.001839473843574524],"type":"VEC3"},{"bufferView":33,"byteOffset":1209600,"componentType":5126,"count":6300,"max":[0.0006084255874156952,0.003865957260131836,0.001442544162273407],"min":[-0.001343376934528351,0,-0.001839496195316315],"type":"VEC3"},{"bufferView":33,"byteOffset":1285200,"componentType":5126,"count":6300,"max":[0.0001036971807479858,0.002637624740600586,0.001920096576213837],"min":[-0.001413315534591675,-0.001932263374328613,-0.0001559555530548096],"type":"VEC3"},{"bufferView":33,"byteOffset":1360800,"componentType":5126,"count":6300,"max":[0.00141279399394989,0.002637624740600586,0.001920327544212341],"min":[-0.0001042969524860382,-0.001932740211486816,-0.000156112015247345],"type":"VEC3"},{"bufferView":33,"byteOffset":1436400,"componentType":5126,"count":6300,"max":[0.0003562606871128082,0.002655506134033203,4.328787326812744e-05],"min":[-0.0003978200256824493,-0.0005526542663574219,-0.001320451498031616],"type":"VEC3"},{"bufferView":33,"byteOffset":1512000,"componentType":5126,"count":6300,"max":[0.000398591160774231,0.002655863761901855,4.29302453994751e-05],"min":[-0.0003562420606613159,-0.0005526542663574219,-0.001320771872997284],"type":"VEC3"},{"bufferView":33,"byteOffset":1587600,"componentType":5126,"count":6300,"max":[0.0002034753561019897,0.002640128135681152,0.001443199813365936],"min":[-0.0001727677881717682,0,0],"type":"VEC3"},{"bufferView":33,"byteOffset":1663200,"componentType":5126,"count":6300,"max":[0.0001743845641613007,0.002625584602355957,0.001440666615962982],"min":[-0.0002014674246311188,0,0],"type":"VEC3"},{"bufferView":33,"byteOffset":1738800,"componentType":5126,"count":6300,"max":[2.546980977058411e-05,0.0005633831024169922,0.0003546327352523804],"min":[-4.812516272068024e-05,0,0],"type":"VEC3"},{"bufferView":33,"byteOffset":1814400,"componentType":5126,"count":6300,"max":[8.45007598400116e-05,0.0006171464920043945,0.0003500059247016907],"min":[-5.508586764335632e-05,0,0],"type":"VEC3"},{"bufferView":33,"byteOffset":1890000,"componentType":5126,"count":6300,"max":[0.0001065321266651154,0.001192212104797363,0.0006440132856369019],"min":[-6.089732050895691e-05,0,0],"type":"VEC3"},{"bufferView":33,"byteOffset":1965600,"componentType":5126,"count":6300,"max":[6.324797868728638e-05,0.001174449920654297,0.0006373748183250427],"min":[-0.0001106373965740204,0,0],"type":"VEC3"},{"bufferView":33,"byteOffset":2041200,"componentType":5126,"count":6300,"max":[5.705654621124268e-05,0.001594901084899902,0.0002552121877670288],"min":[-0.0001537762582302094,0,-0.0004305168986320496],"type":"VEC3"},{"bufferView":33,"byteOffset":2116800,"componentType":5126,"count":6300,"max":[0.0001547019928693771,0.001595258712768555,0.0002554208040237427],"min":[-5.071237683296204e-05,-0.0001475811004638672,-0.0004309713840484619],"type":"VEC3"},{"bufferView":34,"byteOffset":0,"componentType":5123,"count":6300,"type":"VEC4"},{"bufferView":35,"byteOffset":0,"componentType":5126,"count":6300,"type":"VEC4"},{"bufferView":36,"byteOffset":0,"componentType":5125,"count":42336,"type":"SCALAR"},{"bufferView":37,"byteOffset":0,"componentType":5126,"count":7271,"max":[0.1057292148470879,1.818968772888184,0.1439115852117538],"min":[-0.1038044542074203,1.456877708435059,-0.105538047850132],"type":"VEC3"},{"bufferView":38,"byteOffset":0,"componentType":5126,"count":7271,"type":"VEC3"},{"bufferView":39,"byteOffset":0,"componentType":5126,"count":7271,"type":"VEC2"},{"bufferView":40,"byteOffset":0,"componentType":5126,"count":7271,"max":[0.00177457369863987,0.000443577766418457,0.002054326236248016],"min":[-0.003675075247883797,-0.007708698511123657,-0.001908250153064728],"type":"VEC3"},{"bufferView":40,"byteOffset":87252,"componentType":5126,"count":7271,"max":[0.003661090508103371,0.0005773007869720459,0.001947350800037384],"min":[-0.001778161153197289,-0.007480740547180176,-0.002400636672973633],"type":"VEC3"},{"bufferView":40,"byteOffset":174504,"componentType":5126,"count":7271,"max":[0.001511361449956894,0.008846879005432129,0.003149643540382385],"min":[-0.001702582463622093,-0.003855079412460327,-0.002441979944705963],"type":"VEC3"},{"bufferView":40,"byteOffset":261756,"componentType":5126,"count":7271,"max":[0.001044578850269318,0.00547635555267334,0.0003814250230789185],"min":[-0.0004497133195400238,-0.0001778602600097656,-0.002594605088233948],"type":"VEC3"},{"bufferView":40,"byteOffset":349008,"componentType":5126,"count":7271,"max":[0.0004492327570915222,0.005478739738464355,0.0003814175724983215],"min":[-0.001045588403940201,-0.0001776218414306641,-0.002594314515590668],"type":"VEC3"},{"bufferView":40,"byteOffset":436260,"componentType":5126,"count":7271,"max":[0.005804233253002167,0.007399559020996094,0.01998713612556458],"min":[-0.008338652551174164,-0.004147529602050781,-0.0003516972064971924],"type":"VEC3"},{"bufferView":40,"byteOffset":523512,"componentType":5126,"count":7271,"max":[0.002046979963779449,0.004369854927062988,0.001519203186035156],"min":[-0.0004259645938873291,-0.0001654624938964844,-0.0008170753717422485],"type":"VEC3"},{"bufferView":40,"byteOffset":610764,"componentType":5126,"count":7271,"max":[0.0004259534180164337,0.004369854927062988,0.001522399485111237],"min":[-0.002046979963779449,-0.0001654624938964844,-0.000817030668258667],"type":"VEC3"},{"bufferView":40,"byteOffset":698016,"componentType":5126,"count":7271,"max":[0.0009076520800590515,0.0005588531494140625,0.001965254545211792],"min":[-0.001136288046836853,-0.01146376132965088,-0.001273550093173981],"type":"VEC3"},{"bufferView":40,"byteOffset":785268,"componentType":5126,"count":7271,"max":[0.001136578619480133,0.0005556344985961914,0.001965150237083435],"min":[-0.0009072460234165192,-0.01146352291107178,-0.001273572444915771],"type":"VEC3"},{"bufferView":40,"byteOffset":872520,"componentType":5126,"count":7271,"max":[0.0008171051740646362,0.0002487897872924805,0.001078031957149506],"min":[-0.001205079257488251,-0.006784677505493164,-0.002162910997867584],"type":"VEC3"},{"bufferView":40,"byteOffset":959772,"componentType":5126,"count":7271,"max":[0.001206059008836746,0.0002484321594238281,0.001077994704246521],"min":[-0.000815417617559433,-0.006784319877624512,-0.002162784337997437],"type":"VEC3"},{"bufferView":40,"byteOffset":1047024,"componentType":5126,"count":7271,"max":[9.363703429698944e-05,0.0005776882171630859,0.001580439507961273],"min":[-0.002197990193963051,-0.0004492998123168945,-0.001071132719516754],"type":"VEC3"},{"bufferView":40,"byteOffset":1134276,"componentType":5126,"count":7271,"max":[0.002198293805122375,0.0005779266357421875,0.001576006412506104],"min":[-9.339116513729095e-05,-0.0004483461380004883,-0.00107111781835556],"type":"VEC3"},{"bufferView":40,"byteOffset":1221528,"componentType":5126,"count":7271,"max":[0.00248250924050808,0.00048065185546875,0.001243621110916138],"min":[-0.0007427260279655457,-0.0008261203765869141,-0.001207612454891205],"type":"VEC3"},{"bufferView":40,"byteOffset":1308780,"componentType":5126,"count":7271,"max":[0.000742986798286438,0.00048065185546875,0.001243919134140015],"min":[-0.002482892945408821,-0.0008252859115600586,-0.001215599477291107],"type":"VEC3"},{"bufferView":40,"byteOffset":1396032,"componentType":5126,"count":7271,"max":[0.00202101469039917,0.003865718841552734,0.001476339995861053],"min":[-0.0006569214165210724,-1.406669616699219e-05,-0.001839473843574524],"type":"VEC3"},{"bufferView":40,"byteOffset":1483284,"componentType":5126,"count":7271,"max":[0.0006565526127815247,0.003865957260131836,0.001471512019634247],"min":[-0.002032730728387833,-1.454353332519531e-05,-0.001839496195316315],"type":"VEC3"},{"bufferView":40,"byteOffset":1570536,"componentType":5126,"count":7271,"max":[0.0006442032754421234,0.003274202346801758,0.002676986157894135],"min":[-0.003264520317316055,-0.001940608024597168,-0.001415915787220001],"type":"VEC3"},{"bufferView":40,"byteOffset":1657788,"componentType":5126,"count":7271,"max":[0.003264300525188446,0.003274321556091309,0.002679474651813507],"min":[-0.000644199550151825,-0.001932740211486816,-0.001417011022567749],"type":"VEC3"},{"bufferView":40,"byteOffset":1745040,"componentType":5126,"count":7271,"max":[0.0003562606871128082,0.002655506134033203,0.0002703145146369934],"min":[-0.0005036592483520508,-0.0005526542663574219,-0.001320451498031616],"type":"VEC3"},{"bufferView":40,"byteOffset":1832292,"componentType":5126,"count":7271,"max":[0.0005037020891904831,0.002655863761901855,0.0002707540988922119],"min":[-0.0003562420606613159,-0.0005526542663574219,-0.001320771872997284],"type":"VEC3"},{"bufferView":40,"byteOffset":1919544,"componentType":5126,"count":7271,"max":[0.001372396945953369,0.001891732215881348,0.009760260581970215],"min":[-0.001762904226779938,-0.001853108406066895,-1.566484570503235e-06],"type":"VEC3"},{"bufferView":40,"byteOffset":2006796,"componentType":5126,"count":7271,"max":[0.007282646838575602,0.001262307167053223,0.00195486843585968],"min":[-2.596527338027954e-06,-0.001550078392028809,-0.002458393573760986],"type":"VEC3"},{"bufferView":40,"byteOffset":2094048,"componentType":5126,"count":7271,"max":[0.006879322230815887,0.001508474349975586,0.0003918521106243134],"min":[-0.005719751119613647,-0.03711903095245361,-0.02122724801301956],"type":"VEC3"},{"bufferView":40,"byteOffset":2181300,"componentType":5126,"count":7271,"max":[0.0001626759767532349,0.002552628517150879,0.001846142113208771],"min":[-0.007069886196404696,-0.001909375190734863,-0.003607109189033508],"type":"VEC3"},{"bufferView":40,"byteOffset":2268552,"componentType":5126,"count":7271,"max":[0.004659790545701981,0.02930355072021484,0.01826236397027969],"min":[-0.004666656255722046,-0.008525729179382324,-0.003370195627212524],"type":"VEC3"},{"bufferView":40,"byteOffset":2355804,"componentType":5126,"count":7271,"max":[0.006677601486444473,0.007447794079780579,0.002573594450950623],"min":[-0.0002482002601027489,-0.0006969273090362549,-0.007555298507213593],"type":"VEC3"},{"bufferView":40,"byteOffset":2443056,"componentType":5126,"count":7271,"max":[0.0002480996772646904,0.007758304476737976,0.002455592155456543],"min":[-0.006339896470308304,-0.000697016716003418,-0.007005400955677032],"type":"VEC3"},{"bufferView":40,"byteOffset":2530308,"componentType":5126,"count":7271,"max":[0.003999290987849236,0.002744436264038086,0.001635409891605377],"min":[-0.001928610727190971,-0.007632017135620117,-0.003436081111431122],"type":"VEC3"},{"bufferView":40,"byteOffset":2617560,"componentType":5126,"count":7271,"max":[0.001928605139255524,0.002233028411865234,0.001715436577796936],"min":[-0.003964710980653763,-0.007631421089172363,-0.00342143326997757],"type":"VEC3"},{"bufferView":40,"byteOffset":2704812,"componentType":5126,"count":7271,"max":[0.004187298938632011,0.004660129547119141,0.005753658711910248],"min":[-0.005255743861198425,-0.006093025207519531,-0.002049446105957031],"type":"VEC3"},{"bufferView":40,"byteOffset":2792064,"componentType":5126,"count":7271,"max":[0.01206629350781441,0.003838658332824707,0.007018826901912689],"min":[-0.0003759786486625671,-0.003191828727722168,-0.00437607616186142],"type":"VEC3"},{"bufferView":40,"byteOffset":2879316,"componentType":5126,"count":7271,"max":[0.001520991325378418,0.0001412630081176758,0.0007381364703178406],"min":[-0.0005246507935225964,-0.00396883487701416,-0.002076014876365662],"type":"VEC3"},{"bufferView":40,"byteOffset":2966568,"componentType":5126,"count":7271,"max":[0.0005246507935225964,0.0001329183578491211,0.0007382407784461975],"min":[-0.001520993188023567,-0.003968715667724609,-0.002076022326946259],"type":"VEC3"},{"bufferView":40,"byteOffset":3053820,"componentType":5126,"count":7271,"max":[0.002200495451688766,0.005820631980895996,0.001833513379096985],"min":[-0.001220833510160446,-0.004636287689208984,-0.007161065936088562],"type":"VEC3"},{"bufferView":40,"byteOffset":3141072,"componentType":5126,"count":7271,"max":[0.00120840035378933,0.005779743194580078,0.001791119575500488],"min":[-0.002201985567808151,-0.004610300064086914,-0.007296048104763031],"type":"VEC3"},{"bufferView":40,"byteOffset":3228324,"componentType":5126,"count":7271,"max":[0.005402848124504089,0.00512385368347168,0.008809015154838562],"min":[-0.004903597757220268,-0.001262545585632324,-0.001508146524429321],"type":"VEC3"},{"bufferView":40,"byteOffset":3315576,"componentType":5126,"count":7271,"max":[0.0005188025534152985,0.005038619041442871,0.008743613958358765],"min":[-0.01393476780503988,-0.003795385360717773,-0.00513206422328949],"type":"VEC3"},{"bufferView":40,"byteOffset":3402828,"componentType":5126,"count":7271,"max":[0.001613043248653412,0.01009082794189453,0.003748118877410889],"min":[-0.001619824208319187,-0.000165104866027832,-0.007326275110244751],"type":"VEC3"},{"bufferView":40,"byteOffset":3490080,"componentType":5126,"count":7271,"max":[0.003513764590024948,0.003043532371520996,0.004842475056648254],"min":[-0.003520894795656204,-0.01038587093353271,-0.009644046425819397],"type":"VEC3"},{"bufferView":40,"byteOffset":3577332,"componentType":5126,"count":7271,"max":[0.001244888640940189,0.006500840187072754,0.00467720627784729],"min":[-0.001238676719367504,-0.0003085136413574219,-0.00130036473274231],"type":"VEC3"},{"bufferView":40,"byteOffset":3664584,"componentType":5126,"count":7271,"max":[0.001187104731798172,0.004505276679992676,0.002114668488502502],"min":[-0.001521525904536247,-0.000171661376953125,-0.0005889162421226501],"type":"VEC3"},{"bufferView":40,"byteOffset":3751836,"componentType":5126,"count":7271,"max":[0.006274998188018799,0.007038295269012451,0.002135597169399261],"min":[-0.0003542043268680573,-0.0005955994129180908,-0.008428104221820831],"type":"VEC3"},{"bufferView":40,"byteOffset":3839088,"componentType":5126,"count":7271,"max":[0.0007182005792856216,0.007754787802696228,0.001957401633262634],"min":[-0.00603799894452095,-0.0005418062210083008,-0.006782300770282745],"type":"VEC3"},{"bufferView":40,"byteOffset":3926340,"componentType":5126,"count":7271,"max":[0.006348054856061935,0.001591801643371582,0.001230858266353607],"min":[-0.002017311751842499,-0.00594937801361084,-0.008121758699417114],"type":"VEC3"},{"bufferView":40,"byteOffset":4013592,"componentType":5126,"count":7271,"max":[0.001582760363817215,0.001487016677856445,0.001128517091274261],"min":[-0.006830796599388123,-0.006410717964172363,-0.008447736501693726],"type":"VEC3"},{"bufferView":40,"byteOffset":4100844,"componentType":5126,"count":7271,"max":[0.002385176718235016,0.005771398544311523,0.00326237827539444],"min":[-0.0005343984812498093,-0.0001804828643798828,-0.00374949723482132],"type":"VEC3"},{"bufferView":40,"byteOffset":4188096,"componentType":5126,"count":7271,"max":[0.0005184151232242584,0.005765199661254883,0.00326237827539444],"min":[-0.002384930849075317,-0.0001788139343261719,-0.003749795258045197],"type":"VEC3"},{"bufferView":40,"byteOffset":4275348,"componentType":5126,"count":7271,"max":[0.001057598274201155,0.006336331367492676,0.002082131803035736],"min":[-0.001216394826769829,-0.002546906471252441,-0.002609901130199432],"type":"VEC3"},{"bufferView":40,"byteOffset":4362600,"componentType":5126,"count":7271,"max":[0.0014983881264925,0.006333708763122559,0.002091817557811737],"min":[-0.001061559654772282,-0.002544283866882324,-0.002612300217151642],"type":"VEC3"},{"bufferView":41,"byteOffset":0,"componentType":5123,"count":7271,"type":"VEC4"},{"bufferView":42,"byteOffset":0,"componentType":5126,"count":7271,"type":"VEC4"},{"bufferView":43,"byteOffset":0,"componentType":5125,"count":2490,"type":"SCALAR"},{"bufferView":44,"byteOffset":0,"componentType":5126,"count":457,"max":[0.04590437188744545,1.693538904190063,0.1053881868720055],"min":[0.02067487686872482,1.668310165405273,0.07885711640119553],"type":"VEC3"},{"bufferView":45,"byteOffset":0,"componentType":5126,"count":457,"type":"VEC3"},{"bufferView":46,"byteOffset":0,"componentType":5126,"count":457,"type":"VEC2"},{"bufferView":47,"byteOffset":0,"componentType":5123,"count":457,"type":"VEC4"},{"bufferView":48,"byteOffset":0,"componentType":5126,"count":457,"type":"VEC4"},{"bufferView":49,"byteOffset":0,"componentType":5125,"count":2373,"type":"SCALAR"},{"bufferView":50,"byteOffset":0,"componentType":5126,"count":481,"max":[0.0456252284348011,1.693271160125732,0.1030222252011299],"min":[0.02091864868998528,1.668559312820435,0.07917491346597672],"type":"VEC3"},{"bufferView":51,"byteOffset":0,"componentType":5126,"count":481,"type":"VEC3"},{"bufferView":52,"byteOffset":0,"componentType":5126,"count":481,"type":"VEC2"},{"bufferView":53,"byteOffset":0,"componentType":5123,"count":481,"type":"VEC4"},{"bufferView":54,"byteOffset":0,"componentType":5126,"count":481,"type":"VEC4"},{"bufferView":55,"byteOffset":0,"componentType":5125,"count":2490,"type":"SCALAR"},{"bufferView":56,"byteOffset":0,"componentType":5126,"count":457,"max":[-0.02171077206730843,1.695012211799622,0.1051067784428596],"min":[-0.04693568497896194,1.669783711433411,0.07854869216680527],"type":"VEC3"},{"bufferView":57,"byteOffset":0,"componentType":5126,"count":457,"type":"VEC3"},{"bufferView":58,"byteOffset":0,"componentType":5126,"count":457,"type":"VEC2"},{"bufferView":59,"byteOffset":0,"componentType":5123,"count":457,"type":"VEC4"},{"bufferView":60,"byteOffset":0,"componentType":5126,"count":457,"type":"VEC4"},{"bufferView":61,"byteOffset":0,"componentType":5125,"count":2373,"type":"SCALAR"},{"bufferView":62,"byteOffset":0,"componentType":5126,"count":481,"max":[-0.02195347845554352,1.694744348526001,0.1027946919202805],"min":[-0.04665524885058403,1.670032620429993,0.07892445474863052],"type":"VEC3"},{"bufferView":63,"byteOffset":0,"componentType":5126,"count":481,"type":"VEC3"},{"bufferView":64,"byteOffset":0,"componentType":5126,"count":481,"type":"VEC2"},{"bufferView":65,"byteOffset":0,"componentType":5123,"count":481,"type":"VEC4"},{"bufferView":66,"byteOffset":0,"componentType":5126,"count":481,"type":"VEC4"},{"bufferView":67,"byteOffset":0,"componentType":5125,"count":10392,"type":"SCALAR"},{"bufferView":68,"byteOffset":0,"componentType":5126,"count":2511,"max":[0.03224896639585495,1.63061535358429,0.1167201548814774],"min":[-0.03008967451751232,1.597692131996155,0.02776303328573704],"type":"VEC3"},{"bufferView":69,"byteOffset":0,"componentType":5126,"count":2511,"type":"VEC3"},{"bufferView":70,"byteOffset":0,"componentType":5126,"count":2511,"type":"VEC2"},{"bufferView":71,"byteOffset":0,"componentType":5126,"count":2511,"max":[-1.38208270072937e-06,0,0.005985759198665619],"min":[-1.385807991027832e-06,0,0.005985751748085022],"type":"VEC3"},{"bufferView":71,"byteOffset":30132,"componentType":5126,"count":2511,"max":[0.006685714703053236,0,0.002266153693199158],"min":[9.615160524845123e-05,-1.192092895507812e-07,-0.002301696687936783],"type":"VEC3"},{"bufferView":71,"byteOffset":60264,"componentType":5126,"count":2511,"max":[5.641020834445953e-06,0.0004305839538574219,-0.003197673708200455],"min":[7.37607479095459e-07,-0.03849279880523682,-0.02315684407949448],"type":"VEC3"},{"bufferView":71,"byteOffset":90396,"componentType":5126,"count":2511,"max":[-9.535253047943115e-05,-1.192092895507812e-07,0.002264514565467834],"min":[-0.006680381018668413,-2.384185791015625e-07,-0.002303309738636017],"type":"VEC3"},{"bufferView":72,"byteOffset":0,"componentType":5123,"count":2511,"type":"VEC4"},{"bufferView":73,"byteOffset":0,"componentType":5126,"count":2511,"type":"VEC4"},{"bufferView":74,"byteOffset":0,"componentType":5125,"count":10962,"type":"SCALAR"},{"bufferView":75,"byteOffset":0,"componentType":5126,"count":2497,"max":[0.03317879885435104,1.641675353050232,0.1199681609869003],"min":[-0.03094866685569286,1.613184928894043,0.02762314863502979],"type":"VEC3"},{"bufferView":76,"byteOffset":0,"componentType":5126,"count":2497,"type":"VEC3"},{"bufferView":77,"byteOffset":0,"componentType":5126,"count":2497,"type":"VEC2"},{"bufferView":78,"byteOffset":0,"componentType":5123,"count":2497,"type":"VEC4"},{"bufferView":79,"byteOffset":0,"componentType":5126,"count":2497,"type":"VEC4"},{"bufferView":80,"byteOffset":0,"componentType":5125,"count":18456,"type":"SCALAR"},{"bufferView":81,"byteOffset":0,"componentType":5126,"count":3374,"max":[0.08210301399230957,1.703088998794556,0.1229830235242844],"min":[-0.08085855096578598,1.656285166740417,-0.01963179931044579],"type":"VEC3"},{"bufferView":82,"byteOffset":0,"componentType":5126,"count":3374,"type":"VEC3"},{"bufferView":83,"byteOffset":0,"componentType":5126,"count":3374,"type":"VEC2"},{"bufferView":84,"byteOffset":0,"componentType":5123,"count":3374,"type":"VEC4"},{"bufferView":85,"byteOffset":0,"componentType":5126,"count":3374,"type":"VEC4"},{"bufferView":86,"byteOffset":0,"componentType":5125,"count":15930,"type":"SCALAR"},{"bufferView":87,"byteOffset":0,"componentType":5126,"count":4561,"max":[0.1833043247461319,1.063971996307373,0.1376827657222748],"min":[-0.1834238022565842,0.06441319733858109,-0.1221715807914734],"type":"VEC3"},{"bufferView":88,"byteOffset":0,"componentType":5126,"count":4561,"type":"VEC3"},{"bufferView":89,"byteOffset":0,"componentType":5126,"count":4561,"type":"VEC2"},{"bufferView":90,"byteOffset":0,"componentType":5123,"count":4561,"type":"VEC4"},{"bufferView":91,"byteOffset":0,"componentType":5126,"count":4561,"type":"VEC4"},{"bufferView":92,"byteOffset":0,"componentType":5125,"count":11784,"type":"SCALAR"},{"bufferView":93,"byteOffset":0,"componentType":5126,"count":2664,"max":[0.2392832338809967,0.1212347894906998,0.1695270091295242],"min":[-0.2392832338809967,0,-0.1083730757236481],"type":"VEC3"},{"bufferView":94,"byteOffset":0,"componentType":5126,"count":2664,"type":"VEC3"},{"bufferView":95,"byteOffset":0,"componentType":5126,"count":2664,"type":"VEC2"},{"bufferView":96,"byteOffset":0,"componentType":5123,"count":2664,"type":"VEC4"},{"bufferView":97,"byteOffset":0,"componentType":5126,"count":2664,"type":"VEC4"},{"bufferView":98,"byteOffset":0,"componentType":5125,"count":37494,"type":"SCALAR"},{"bufferView":99,"byteOffset":0,"componentType":5126,"count":7037,"max":[0.6990590691566467,1.636227130889893,0.1589349806308746],"min":[-0.6991114020347595,0.9445210099220276,-0.1618379503488541],"type":"VEC3"},{"bufferView":100,"byteOffset":0,"componentType":5126,"count":7037,"type":"VEC3"},{"bufferView":101,"byteOffset":0,"componentType":5126,"count":7037,"type":"VEC2"},{"bufferView":102,"byteOffset":0,"componentType":5123,"count":7037,"type":"VEC4"},{"bufferView":103,"byteOffset":0,"componentType":5126,"count":7037,"type":"VEC4"},{"bufferView":104,"byteOffset":0,"componentType":5126,"count":73,"type":"MAT4"}],"asset":{"version":"2.0"},"bufferViews":[{"buffer":0,"byteLength":72384,"byteOffset":0},{"buffer":0,"byteLength":159543,"byteOffset":72384},{"buffer":0,"byteLength":75332,"byteOffset":231928},{"buffer":0,"byteLength":29281,"byteOffset":307260},{"buffer":0,"byteLength":23029,"byteOffset":336544},{"buffer":0,"byteLength":28478,"byteOffset":359576},{"buffer":0,"byteLength":124084,"byteOffset":388056},{"buffer":0,"byteLength":111858,"byteOffset":512140},{"buffer":0,"byteLength":32132,"byteOffset":624000},{"buffer":0,"byteLength":71262,"byteOffset":656132},{"buffer":0,"byteLength":134634,"byteOffset":727396},{"buffer":0,"byteLength":184265,"byteOffset":862032},{"buffer":0,"byteLength":95456,"byteOffset":1046300},{"buffer":0,"byteLength":272336,"byteOffset":1141756},{"buffer":0,"byteLength":19353,"byteOffset":1414092},{"buffer":0,"byteLength":3612,"byteOffset":1433448},{"buffer":0,"byteLength":109721,"byteOffset":1437060},{"buffer":0,"byteLength":54028,"byteOffset":1546784},{"buffer":0,"byteLength":276311,"byteOffset":1600812},{"buffer":0,"byteLength":251047,"byteOffset":1877124},{"buffer":0,"byteLength":223899,"byteOffset":2128172},{"buffer":0,"byteLength":286678,"byteOffset":2352072},{"buffer":0,"byteLength":156090,"byteOffset":2638752},{"buffer":0,"byteLength":40992,"byteOffset":2794844,"target":34963},{"buffer":0,"byteLength":24696,"byteOffset":2835836,"target":34962},{"buffer":0,"byteLength":24696,"byteOffset":2860532,"target":34962},{"buffer":0,"byteLength":16464,"byteOffset":2885228,"target":34962},{"buffer":0,"byteLength":16464,"byteOffset":2901692},{"buffer":0,"byteLength":32928,"byteOffset":2918156},{"buffer":0,"byteLength":58800,"byteOffset":2951084,"target":34963},{"buffer":0,"byteLength":75600,"byteOffset":3009884,"target":34962},{"buffer":0,"byteLength":75600,"byteOffset":3085484,"target":34962},{"buffer":0,"byteLength":50400,"byteOffset":3161084,"target":34962},{"buffer":0,"byteLength":2192400,"byteOffset":3211484,"byteStride":12,"target":34962},{"buffer":0,"byteLength":50400,"byteOffset":5403884},{"buffer":0,"byteLength":100800,"byteOffset":5454284},{"buffer":0,"byteLength":169344,"byteOffset":5555084,"target":34963},{"buffer":0,"byteLength":87252,"byteOffset":5724428,"target":34962},{"buffer":0,"byteLength":87252,"byteOffset":5811680,"target":34962},{"buffer":0,"byteLength":58168,"byteOffset":5898932,"target":34962},{"buffer":0,"byteLength":4449852,"byteOffset":5957100,"byteStride":12,"target":34962},{"buffer":0,"byteLength":58168,"byteOffset":10406952},{"buffer":0,"byteLength":116336,"byteOffset":10465120},{"buffer":0,"byteLength":9960,"byteOffset":10581456,"target":34963},{"buffer":0,"byteLength":5484,"byteOffset":10591416,"target":34962},{"buffer":0,"byteLength":5484,"byteOffset":10596900,"target":34962},{"buffer":0,"byteLength":3656,"byteOffset":10602384,"target":34962},{"buffer":0,"byteLength":3656,"byteOffset":10606040},{"buffer":0,"byteLength":7312,"byteOffset":10609696},{"buffer":0,"byteLength":9492,"byteOffset":10617008,"target":34963},{"buffer":0,"byteLength":5772,"byteOffset":10626500,"target":34962},{"buffer":0,"byteLength":5772,"byteOffset":10632272,"target":34962},{"buffer":0,"byteLength":3848,"byteOffset":10638044,"target":34962},{"buffer":0,"byteLength":3848,"byteOffset":10641892},{"buffer":0,"byteLength":7696,"byteOffset":10645740},{"buffer":0,"byteLength":9960,"byteOffset":10653436,"target":34963},{"buffer":0,"byteLength":5484,"byteOffset":10663396,"target":34962},{"buffer":0,"byteLength":5484,"byteOffset":10668880,"target":34962},{"buffer":0,"byteLength":3656,"byteOffset":10674364,"target":34962},{"buffer":0,"byteLength":3656,"byteOffset":10678020},{"buffer":0,"byteLength":7312,"byteOffset":10681676},{"buffer":0,"byteLength":9492,"byteOffset":10688988,"target":34963},{"buffer":0,"byteLength":5772,"byteOffset":10698480,"target":34962},{"buffer":0,"byteLength":5772,"byteOffset":10704252,"target":34962},{"buffer":0,"byteLength":3848,"byteOffset":10710024,"target":34962},{"buffer":0,"byteLength":3848,"byteOffset":10713872},{"buffer":0,"byteLength":7696,"byteOffset":10717720},{"buffer":0,"byteLength":41568,"byteOffset":10725416,"target":34963},{"buffer":0,"byteLength":30132,"byteOffset":10766984,"target":34962},{"buffer":0,"byteLength":30132,"byteOffset":10797116,"target":34962},{"buffer":0,"byteLength":20088,"byteOffset":10827248,"target":34962},{"buffer":0,"byteLength":120528,"byteOffset":10847336,"byteStride":12,"target":34962},{"buffer":0,"byteLength":20088,"byteOffset":10967864},{"buffer":0,"byteLength":40176,"byteOffset":10987952},{"buffer":0,"byteLength":43848,"byteOffset":11028128,"target":34963},{"buffer":0,"byteLength":29964,"byteOffset":11071976,"target":34962},{"buffer":0,"byteLength":29964,"byteOffset":11101940,"target":34962},{"buffer":0,"byteLength":19976,"byteOffset":11131904,"target":34962},{"buffer":0,"byteLength":19976,"byteOffset":11151880},{"buffer":0,"byteLength":39952,"byteOffset":11171856},{"buffer":0,"byteLength":73824,"byteOffset":11211808,"target":34963},{"buffer":0,"byteLength":40488,"byteOffset":11285632,"target":34962},{"buffer":0,"byteLength":40488,"byteOffset":11326120,"target":34962},{"buffer":0,"byteLength":26992,"byteOffset":11366608,"target":34962},{"buffer":0,"byteLength":26992,"byteOffset":11393600},{"buffer":0,"byteLength":53984,"byteOffset":11420592},{"buffer":0,"byteLength":63720,"byteOffset":11474576,"target":34963},{"buffer":0,"byteLength":54732,"byteOffset":11538296,"target":34962},{"buffer":0,"byteLength":54732,"byteOffset":11593028,"target":34962},{"buffer":0,"byteLength":36488,"byteOffset":11647760,"target":34962},{"buffer":0,"byteLength":36488,"byteOffset":11684248},{"buffer":0,"byteLength":72976,"byteOffset":11720736},{"buffer":0,"byteLength":47136,"byteOffset":11793712,"target":34963},{"buffer":0,"byteLength":31968,"byteOffset":11840848,"target":34962},{"buffer":0,"byteLength":31968,"byteOffset":11872816,"target":34962},{"buffer":0,"byteLength":21312,"byteOffset":11904784,"target":34962},{"buffer":0,"byteLength":21312,"byteOffset":11926096},{"buffer":0,"byteLength":42624,"byteOffset":11947408},{"buffer":0,"byteLength":149976,"byteOffset":11990032,"target":34963},{"buffer":0,"byteLength":84444,"byteOffset":12140008,"target":34962},{"buffer":0,"byteLength":84444,"byteOffset":12224452,"target":34962},{"buffer":0,"byteLength":56296,"byteOffset":12308896,"target":34962},{"buffer":0,"byteLength":56296,"byteOffset":12365192},{"buffer":0,"byteLength":112592,"byteOffset":12421488},{"buffer":0,"byteLength":4672,"byteOffset":12534080}],"buffers":[{"byteLength":12538752,"uri":"model.bin"}],"images":[{"bufferView":0,"mimeType":"image/jpeg"},{"bufferView":1,"mimeType":"image/jpeg"},{"bufferView":2,"mimeType":"image/jpeg"},{"bufferView":3,"mimeType":"image/jpeg"},{"bufferView":4,"mimeType":"image/jpeg"},{"bufferView":5,"mimeType":"image/jpeg"},{"bufferView":6,"mimeType":"image/jpeg"},{"bufferView":7,"mimeType":"image/jpeg"},{"bufferView":8,"mimeType":"image/jpeg"},{"bufferView":9,"mimeType":"image/jpeg"},{"bufferView":10,"mimeType":"image/jpeg"},{"bufferView":11,"mimeType":"image/jpeg"},{"bufferView":12,"mimeType":"image/jpeg"},{"bufferView":13,"mimeType":"image/jpeg"},{"bufferView":14,"mimeType":"image/png"},{"bufferView":15,"mimeType":"image/jpeg"},{"bufferView":16,"mimeType":"image/jpeg"},{"bufferView":17,"mimeType":"image/jpeg"},{"bufferView":18,"mimeType":"image/jpeg"},{"bufferView":19,"mimeType":"image/jpeg"},{"bufferView":20,"mimeType":"image/jpeg"},{"bufferView":21,"mimeType":"image/jpeg"},{"bufferView":22,"mimeType":"image/jpeg"}],"materials":[{"name":"AvatarBody","normalTexture":{"index":2},"pbrMetallicRoughness":{"baseColorTexture":{"index":0},"metallicRoughnessTexture":{"index":1}}},{"name":"AvatarEyelashes","pbrMetallicRoughness":{"baseColorFactor":[0,0,0,1],"metallicFactor":0,"roughnessFactor":1}},{"name":"AvatarHead","normalTexture":{"index":8},"pbrMetallicRoughness":{"baseColorTexture":{"index":6},"metallicRoughnessTexture":{"index":7}}},{"alphaMode":"BLEND","name":"AvatarLeftCornea","pbrMetallicRoughness":{"baseColorFactor":[1,1,1,0],"metallicFactor":0,"roughnessFactor":1}},{"name":"AvatarLeftEyeball","normalTexture":{"index":5},"pbrMetallicRoughness":{"baseColorTexture":{"index":3},"metallicRoughnessTexture":{"index":4}}},{"alphaMode":"BLEND","name":"AvatarRightCornea","pbrMetallicRoughness":{"baseColorFactor":[1,1,1,0],"metallicFactor":0,"roughnessFactor":1}},{"name":"AvatarRightEyeball","normalTexture":{"index":5},"pbrMetallicRoughness":{"baseColorTexture":{"index":3},"metallicRoughnessTexture":{"index":4}}},{"name":"AvatarTeethLower","normalTexture":{"index":11},"pbrMetallicRoughness":{"baseColorTexture":{"index":9},"metallicRoughnessTexture":{"index":10}}},{"name":"AvatarTeethUpper","normalTexture":{"index":11},"pbrMetallicRoughness":{"baseColorTexture":{"index":9},"metallicRoughnessTexture":{"index":10}}},{"alphaMode":"BLEND","name":"glasses","pbrMetallicRoughness":{"baseColorTexture":{"index":14},"metallicRoughnessTexture":{"index":15}}},{"name":"outfit_bottom","normalTexture":{"index":21},"pbrMetallicRoughness":{"baseColorTexture":{"index":19},"metallicRoughnessTexture":{"index":20}}},{"name":"outfit_shoes","normalTexture":{"index":13},"pbrMetallicRoughness":{"baseColorTexture":{"index":22},"metallicRoughnessTexture":{"index":12}}},{"name":"outfit_top","normalTexture":{"index":18},"pbrMetallicRoughness":{"baseColorTexture":{"index":16},"metallicRoughnessTexture":{"index":17}}}],"meshes":[{"primitives":[{"attributes":{"JOINTS_0":4,"NORMAL":2,"POSITION":1,"TEXCOORD_0":3,"WEIGHTS_0":5},"indices":0,"material":0,"name":"AvatarBody"}]},{"extras":{"targetNames":["browDownLeft","browDownRight","browInnerUp","browOuterUpLeft","browOuterUpRight","cheekSquintLeft","cheekSquintRight","eyeBlinkLeft","eyeBlinkRight","eyeLookDownLeft","eyeLookDownRight","eyeLookInLeft","eyeLookInRight","eyeLookOutLeft","eyeLookOutRight","eyeLookUpLeft","eyeLookUpRight","eyeSquintLeft","eyeSquintRight","eyeWideLeft","eyeWideRight","mouthDimpleLeft","mouthDimpleRight","mouthLeft","mouthRight","mouthSmileLeft","mouthSmileRight","noseSneerLeft","noseSneerRight"]},"primitives":[{"attributes":{"JOINTS_0":39,"NORMAL":8,"POSITION":7,"TEXCOORD_0":9,"WEIGHTS_0":40},"indices":6,"material":1,"name":"AvatarEyelashes","targets":[{"POSITION":10},{"POSITION":11},{"POSITION":12},{"POSITION":13},{"POSITION":14},{"POSITION":15},{"POSITION":16},{"POSITION":17},{"POSITION":18},{"POSITION":19},{"POSITION":20},{"POSITION":21},{"POSITION":22},{"POSITION":23},{"POSITION":24},{"POSITION":25},{"POSITION":26},{"POSITION":27},{"POSITION":28},{"POSITION":29},{"POSITION":30},{"POSITION":31},{"POSITION":32},{"POSITION":33},{"POSITION":34},{"POSITION":35},{"POSITION":36},{"POSITION":37},{"POSITION":38}]}],"weights":[0,0,0,0,0,0,0,0,0,0,0,0,0,0,0,0,0,0,0,0,0,0,0,0,0,0,0,0,0]},{"extras":{"targetNames":["browDownLeft","browDownRight","browInnerUp","browOuterUpLeft","browOuterUpRight","cheekPuff","cheekSquintLeft","cheekSquintRight","eyeBlinkLeft","eyeBlinkRight","eyeLookDownLeft","eyeLookDownRight","eyeLookInLeft","eyeLookInRight","eyeLookOutLeft","eyeLookOutRight","eyeLookUpLeft","eyeLookUpRight","eyeSquintLeft","eyeSquintRight","eyeWideLeft","eyeWideRight","jawForward","jawLeft","jawOpen","jawRight","mouthClose","mouthDimpleLeft","mouthDimpleRight","mouthFrownLeft","mouthFrownRight","mouthFunnel","mouthLeft","mouthLowerDownLeft","mouthLowerDownRight","mouthPressLeft","mouthPressRight","mouthPucker","mouthRight","mouthRollLower","mouthRollUpper","mouthShrugLower","mouthShrugUpper","mouthSmileLeft","mouthSmileRight","mouthStretchLeft","mouthStretchRight","mouthUpperUpLeft","mouthUpperUpRight","noseSneerLeft","noseSneerRight"]},"primitives":[{"attributes":{"JOINTS_0":96,"NORMAL":43,"POSITION":42,"TEXCOORD_0":44,"WEIGHTS_0":97},"indices":41,"material":2,"name":"AvatarHead","targets":[{"POSITION":45},{"POSITION":46},{"POSITION":47},{"POSITION":48},{"POSITION":49},{"POSITION":50},{"POSITION":51},{"POSITION":52},{"POSITION":53},{"POSITION":54},{"POSITION":55},{"POSITION":56},{"POSITION":57},{"POSITION":58},{"POSITION":59},{"POSITION":60},{"POSITION":61},{"POSITION":62},{"POSITION":63},{"POSITION":64},{"POSITION":65},{"POSITION":66},{"POSITION":67},{"POSITION":68},{"POSITION":69},{"POSITION":70},{"POSITION":71},{"POSITION":72},{"POSITION":73},{"POSITION":74},{"POSITION":75},{"POSITION":76},{"POSITION":77},{"POSITION":78},{"POSITION":79},{"POSITION":80},{"POSITION":81},{"POSITION":82},{"POSITION":83},{"POSITION":84},{"POSITION":85},{"POSITION":86},{"POSITION":87},{"POSITION":88},{"POSITION":89},{"POSITION":90},{"POSITION":91},{"POSITION":92},{"POSITION":93},{"POSITION":94},{"POSITION":95}]}],"weights":[0,0,0,0,0,0,0,0,0,0,0,0,0,0,0,0,0,0,0,0,0,0,0,0,0,0,0,0,0,0,0,0,0,0,0,0,0,0,0,0,0,0,0,0,0,0,0,0,0,0,0]},{"primitives":[{"attributes":{"JOINTS_0":102,"NORMAL":100,"POSITION":99,"TEXCOORD_0":101,"WEIGHTS_0":103},"indices":98,"material":3,"name":"AvatarLeftCornea"}]},{"primitives":[{"attributes":{"JOINTS_0":108,"NORMAL":106,"POSITION":105,"TEXCOORD_0":107,"WEIGHTS_0":109},"indices":104,"material":4,"name":"AvatarLeftEyeball"}]},{"primitives":[{"attributes":{"JOINTS_0":114,"NORMAL":112,"POSITION":111,"TEXCOORD_0":113,"WEIGHTS_0":115},"indices":110,"material":5,"name":"AvatarRightCornea"}]},{"primitives":[{"attributes":{"JOINTS_0":120,"NORMAL":118,"POSITION":117,"TEXCOORD_0":119,"WEIGHTS_0":121},"indices":116,"material":6,"name":"AvatarRightEyeball"}]},{"extras":{"targetNames":["jawForward","jawLeft","jawOpen","jawRight"]},"primitives":[{"attributes":{"JOINTS_0":130,"NORMAL":124,"POSITION":123,"TEXCOORD_0":125,"WEIGHTS_0":131},"indices":122,"material":7,"name":"AvatarTeethLower","targets":[{"POSITION":126},{"POSITION":127},{"POSITION":128},{"POSITION":129}]}],"weights":[0,0,0,0]},{"primitives":[{"attributes":{"JOINTS_0":136,"NORMAL":134,"POSITION":133,"TEXCOORD_0":135,"WEIGHTS_0":137},"indices":132,"material":8,"name":"AvatarTeethUpper"}]},{"primitives":[{"attributes":{"JOINTS_0":142,"NORMAL":140,"POSITION":139,"TEXCOORD_0":141,"WEIGHTS_0":143},"indices":138,"material":9,"name":"glasses"}]},{"primitives":[{"attributes":{"JOINTS_0":148,"NORMAL":146,"POSITION":145,"TEXCOORD_0":147,"WEIGHTS_0":149},"indices":144,"material":10,"name":"outfit_bottom"}]},{"primitives":[{"attributes":{"JOINTS_0":154,"NORMAL":152,"POSITION":151,"TEXCOORD_0":153,"WEIGHTS_0":155},"indices":150,"material":11,"name":"outfit_shoes"}]},{"primitives":[{"attributes":{"JOINTS_0":160,"NORMAL":158,"POSITION":157,"TEXCOORD_0":159,"WEIGHTS_0":161},"indices":156,"material":12,"name":"outfit_top"}]}],"nodes":[{"children":[1,74,75,76,77,78,79,80,81,82,83,84,85,86],"name":"AvatarRoot"},{"children":[2,64,69],"name":"Hips","translation":[0,0.9413881897926331,-0.002688467036932707]},{"children":[3],"name":"Spine","rotation":[0.008726297877728939,0,0,0.9999619126319885],"translation":[0,0.1599756479263306,0.01866297610104084]},{"children":[4],"name":"Spine1","rotation":[-0.0828082263469696,0,0,0.9965655207633972],"translation":[0,0.1158174276351929,0.0009359805844724178]},{"children":[5,12,38],"name":"Spine2","rotation":[0.01308962237089872,0,0,0.9999143481254578],"translation":[0,0.06938985735177994,0.01104785595089197]},{"children":[6],"name":"Neck","translation":[0,0.2280291169881821,-0.02392764016985893]},{"children":[7],"name":"Neck1","rotation":[0.06104877218604088,0,0,0.9981347918510437],"translation":[0,0.02867833338677883,0.0203663632273674]},{"children":[8],"name":"Neck2","translation":[0,0.03341770172119141,0.01292905956506729]},{"children":[9,10,11],"name":"Head","rotation":[-0.06104877218604088,0,0,0.9981347918510437],"translation":[0,0.03957176208496094,-0.00890140887349844]},{"name":"LeftEye","rotation":[0.06104877218604088,0,0,0.9981347918510437],"translation":[0.03386420384049416,0.05296629294753075,0.1104060858488083]},{"name":"RightEye","rotation":[0.06104877218604088,0,0,0.9981347918510437],"translation":[-0.03488470986485481,0.0544632226228714,0.110344685614109]},{"name":"HeadTop_End","rotation":[0.06104877218604088,0,0,0.9981347918510437],"translation":[0,0.1732686311006546,0.02127473056316376]},{"children":[13],"name":"LeftShoulder","rotation":[0.568368673324585,0.4820874333381653,-0.4045192003250122,0.5300122499465942],"translation":[0.07681794464588165,0.1352007240056992,-0.05969477444887161]},{"children":[14],"name":"LeftArm","rotation":[0.05204906314611435,9.65269464359153e-08,-0.1045280694961548,0.9931589961051941],"translation":[0.02392774261534214,0.0953199714422226,-0.01832015067338943]},{"children":[15,16,17],"name":"LeftForeArm","rotation":[-0.05288181826472282,-0.0001536732306703925,0.1476778388023376,0.9876207709312439],"translation":[-0.02532957307994366,0.2782608866691589,-0.001667208736762404]},{"name":"LeftForeArm1","rotation":[0.001131810713559389,-2.059797407127917e-05,0.0001316676498390734,0.9999993443489075],"translation":[0.0005892380140721798,0.1163279786705971,-0.0003019151918124408]},{"name":"LeftForeArm2","rotation":[0.05346626043319702,-1.36664157253108e-05,0.0001325332996202633,0.998569667339325],"translation":[0.001010664273053408,0.1942989379167557,-0.0006914791301824152]},{"children":[18,22,26,30,34],"name":"LeftHand","rotation":[-8.260042250185506e-07,0.004106431733816862,-0.07835163176059723,0.9969173073768616],"translation":[0.004441840574145317,0.2497228533029556,0.001038008718751371]},{"children":[19],"name":"LeftHandThumb1","rotation":[0.139828160405159,0.206134706735611,0.4800790548324585,0.8411186933517456],"translation":[-0.01589029096066952,0.01010673493146896,0.003831075970083475]},{"children":[20],"name":"LeftHandThumb2","rotation":[0.03331103920936584,-0.2080520540475845,-0.1399648189544678,0.9674784541130066],"translation":[-0.0004573894548229873,0.04661609977483749,-9.426525502931327e-05]},{"children":[21],"name":"LeftHandThumb3","rotation":[0.01277317106723785,-0.03423602133989334,-0.07043174654245377,0.9968470931053162],"translation":[-0.0003095798019785434,0.03449414670467377,-4.951167284161784e-05]},{"name":"LeftHandThumb4","rotation":[-0.01007200218737125,0.001381735317409039,-0.001390732708387077,0.9999473690986633],"translation":[6.681678496534005e-05,0.0298178531229496,0.0001402408233843744]},{"children":[23],"name":"LeftHandIndex1","rotation":[-0.01126558892428875,-0.0008654983248561621,0.02571027539670467,0.9996055960655212],"translation":[-0.02421891689300537,0.07915274053812027,-0.001420707325451076]},{"children":[24],"name":"LeftHandIndex2","rotation":[0.08082494139671326,-0.0008337536710314453,-0.04501111432909966,0.9957111477851868],"translation":[0.0006684651016257703,0.0435921773314476,-0.0004132415633648634]},{"children":[25],"name":"LeftHandIndex3","rotation":[0.04431826621294022,0.003275060094892979,0.01330377999693155,0.9989234805107117],"translation":[-0.0005937422974966466,0.02707450836896896,-0.0004433883295860142]},{"name":"LeftHandIndex4","rotation":[0.03939193487167358,0.05648643150925636,0.02321464940905571,0.9973558187484741],"translation":[-8.090576557151508e-06,0.0232173465192318,0.0001191060873679817]},{"children":[27],"name":"LeftHandMiddle1","rotation":[0.007784898858517408,0.001119061140343547,-0.01945509761571884,0.9997798204421997],"translation":[0.0006870594806969166,0.08061432838439941,-0.002580694388598204]},{"children":[28],"name":"LeftHandMiddle2","rotation":[0.1231604889035225,-0.0005841413512825966,-0.008177800104022026,0.9923529028892517],"translation":[-0.000187827565241605,0.0514565035700798,0.0002694217837415636]},{"children":[29],"name":"LeftHandMiddle3","rotation":[0.03555552661418915,-0.001461188076063991,-0.02147316001355648,0.9991359114646912],"translation":[4.565686685964465e-05,0.03243948891758919,0.0001606873556738719]},{"name":"LeftHandMiddle4","rotation":[-0.0494338683784008,0.05530224740505219,-0.006766706239432096,0.9972222447395325],"translation":[2.129110544046853e-05,0.02589347027242184,-9.712028986541554e-05]},{"children":[31],"name":"LeftHandRing1","rotation":[0.04334479942917824,0.000833047553896904,-0.06763716042041779,0.9967676401138306],"translation":[0.02075963281095028,0.0721166655421257,-0.006233146414160728]},{"children":[32],"name":"LeftHandRing2","rotation":[0.1135126799345016,0.001491128001362085,0.007733187172561884,0.9935053586959839],"translation":[0.000261924957158044,0.04929259419441223,0.0002060289407381788]},{"children":[33],"name":"LeftHandRing3","rotation":[0.08810912817716599,-0.00284420745447278,-0.01496062520891428,0.9959943890571594],"translation":[-7.138679211493582e-05,0.02866843156516552,0.0005642450996674597]},{"name":"LeftHandRing4","rotation":[-0.1185577288269997,0.05954555794596672,0.005876949988305569,0.9911426901817322],"translation":[4.733181413030252e-05,0.02472992055118084,-2.096992102451622e-05]},{"children":[35],"name":"LeftHandPinky1","rotation":[0.017879918217659,0.007608721032738686,-0.2090086191892624,0.9777207374572754],"translation":[0.03761732578277588,0.06751476228237152,0.001788479625247419]},{"children":[36],"name":"LeftHandPinky2","rotation":[0.06007032096385956,0.00431701447814703,0.00293983006849885,0.9981805086135864],"translation":[-0.0001062210430973209,0.0346493124961853,0.0003656561020761728]},{"children":[37],"name":"LeftHandPinky3","rotation":[0.06888928264379501,-1.211865219374886e-05,0.04117506742477417,0.9967742562294006],"translation":[-9.416785906068981e-05,0.01979142986238003,-0.0001662408758420497]},{"name":"LeftHandPinky4","rotation":[0.03433821350336075,0.08532892912626266,0.06739678978919983,0.9934775233268738],"translation":[5.465599315357395e-05,0.02145266532897949,0.0001861833879956976]},{"children":[39],"name":"RightShoulder","rotation":[0.5683687329292297,-0.4820875823497772,0.4045192003250122,0.5300120711326599],"translation":[-0.07681794464588165,0.1352007240056992,-0.05969477444887161]},{"children":[40],"name":"RightArm","rotation":[0.05204956606030464,1.526512676264247e-07,0.1045275330543518,0.9931589961051941],"translation":[-0.02392772026360035,0.09531997889280319,-0.01832015439867973]},{"children":[41,42,43],"name":"RightForeArm","rotation":[-0.05176153406500816,1.643029321485301e-07,-0.1478085517883301,0.9876605272293091],"translation":[0.02532936446368694,0.2782608866691589,-0.001667518983595073]},{"name":"RightForeArm1","translation":[-0.0006198213086463511,0.1163268387317657,-0.000565245863981545]},{"name":"RightForeArm2","translation":[-0.001061738701537251,0.1942965984344482,-0.001131312688812613]},{"children":[44,48,52,56,60],"name":"RightHand","rotation":[0.05217498540878296,-2.540270145345858e-07,0.07845897972583771,0.9955511093139648],"translation":[-0.004507564939558506,0.2497233748435974,0.0004725768812932074]},{"children":[45],"name":"RightHandThumb1","rotation":[0.09457369148731232,-0.2313330620527267,-0.4682576060295105,0.8475114703178406],"translation":[0.01588863134384155,0.0104619050398469,0.002724794438108802]},{"children":[46],"name":"RightHandThumb2","rotation":[0.03331982344388962,0.2080790251493454,0.1399668157100677,0.9674720764160156],"translation":[0.0004613281635101885,0.04661606624722481,-9.080385643756017e-05]},{"children":[47],"name":"RightHandThumb3","rotation":[0.01275439560413361,0.03423516824841499,0.07043207436800003,0.9968473315238953],"translation":[0.0003114439896307886,0.03449413180351257,-4.694446033681743e-05]},{"name":"RightHandThumb4","rotation":[-0.01038459874689579,-0.001431641401723027,0.001663075876422226,0.9999436736106873],"translation":[-6.545075302710757e-05,0.0298178419470787,0.0001432820281479508]},{"children":[49],"name":"RightHandIndex1","rotation":[-0.06469371914863586,-0.0003509758680593222,-0.02559685707092285,0.9975767731666565],"translation":[0.02419612184166908,0.07855470478534698,-0.009871039539575577]},{"children":[50],"name":"RightHandIndex2","rotation":[0.0808342918753624,0.0008192474488168955,0.04500981420278549,0.9957104325294495],"translation":[-0.0006694832118228078,0.04359216615557671,-0.0004127676947973669]},{"children":[51],"name":"RightHandIndex3","rotation":[0.04429399967193604,-0.003278190968558192,-0.01331144291907549,0.9989244937896729],"translation":[0.0005931139457970858,0.02707451954483986,-0.000443577126134187]},{"name":"RightHandIndex4","rotation":[-0.01769305020570755,0.0004034752491861582,-0.00134586077183485,0.9998424649238586],"translation":[7.303118309209822e-06,0.02321734093129635,0.0001200692495331168]},{"children":[53],"name":"RightHandMiddle1","rotation":[-0.04566812515258789,3.831769208773039e-05,0.01524009555578232,0.9988403916358948],"translation":[-0.0007106264238245785,0.07987793534994125,-0.01117195468395948]},{"children":[54],"name":"RightHandMiddle2","rotation":[0.1231256723403931,0.0009455661638639867,0.01252550911158323,0.9923115968704224],"translation":[-0.0002626702189445496,0.05145617574453354,0.0002692569978535175]},{"children":[55],"name":"RightHandMiddle3","rotation":[0.03557093068957329,0.00147686677519232,0.02145985700190067,0.9991356134414673],"translation":[-4.633802018361166e-05,0.03243947774171829,0.0001625669538043439]},{"name":"RightHandMiddle4","rotation":[-0.01554667018353939,-0.0002902167034335434,0.002441943855956197,0.9998761415481567],"translation":[-2.246100120828487e-05,0.02589347213506699,-9.637630864745006e-05]},{"children":[57],"name":"RightHandRing1","rotation":[-0.00998624786734581,0.002952027833089232,0.06768766790628433,0.9976522326469421],"translation":[-0.02078193798661232,0.07103393971920013,-0.01388950366526842]},{"children":[58],"name":"RightHandRing2","rotation":[0.1134973764419556,-0.001408730167895555,-0.007701833732426167,0.993507444858551],"translation":[-0.0002641417959239334,0.04929258301854134,0.0002057723031612113]},{"children":[59],"name":"RightHandRing3","rotation":[0.08807732164859772,0.002722362522035837,0.01495214458554983,0.9959976673126221],"translation":[7.129464211175218e-05,0.02866841666400433,0.000565027876291424]},{"name":"RightHandRing4","rotation":[-0.01559850201010704,0.0001774926931830123,-0.003901101881638169,0.9998707175254822],"translation":[-4.792846812051721e-05,0.02472992055118084,-1.875075031421147e-05]},{"children":[61],"name":"RightHandPinky1","rotation":[-0.03437742218375206,0.003732202108949423,0.2092072367668152,0.9772597551345825],"translation":[-0.03763582929968834,0.06731053441762924,-0.005416691303253174]},{"children":[62],"name":"RightHandPinky2","rotation":[0.06010036915540695,-0.004341919906437397,-0.00290491059422493,0.9981786608695984],"translation":[0.0001036600879160687,0.0346493199467659,0.0003658532514236867]},{"children":[63],"name":"RightHandPinky3","rotation":[0.06883905827999115,-8.812612941255793e-05,-0.0414312481880188,0.9967671036720276],"translation":[9.415292151970789e-05,0.01979142241179943,-0.0001673225779086351]},{"name":"RightHandPinky4","rotation":[-0.007544676773250103,-0.000807944277767092,0.007321036420762539,0.9999443888664246],"translation":[-6.510863750008866e-05,0.02145262993872166,0.0001868817344075069]},{"children":[65],"name":"LeftUpLeg","rotation":[-0.0001523241226095706,0.004360590130090714,-0.9993813037872314,0.03489914909005165],"translation":[0.07228624075651169,-0.01071083545684814,0.01550094224512577]},{"children":[66],"name":"LeftLeg","rotation":[-0.05669054016470909,0.000570746255107224,-0.008707590401172638,0.9983536601066589],"translation":[-0.003543559461832047,0.4229088127613068,-0.00442407326772809]},{"children":[67],"name":"LeftFoot","rotation":[0.6044433116912842,-0.1905914098024368,0.08676434308290482,0.7686319947242737],"translation":[-0.003060222137719393,0.429872989654541,-0.002075403928756714]},{"children":[68],"name":"LeftToeBase","rotation":[0.1174018383026123,0.01099645439535379,-0.04670079424977303,0.9919248819351196],"translation":[0.0003140766348224133,0.1127441450953484,-0.001061497023329139]},{"name":"LeftToe_End","translation":[-0.000925057684071362,0.0985196903347969,-0.000163493663421832]},{"children":[70],"name":"RightUpLeg","rotation":[-0.0001522681850474328,-0.00436058733612299,0.9993813037872314,0.03489916026592255],"translation":[-0.07228624075651169,-0.01071083545684814,0.01550094224512577]},{"children":[71],"name":"RightLeg","rotation":[-0.05669054388999939,-0.0005708835087716579,0.00870782695710659,0.9983536601066589],"translation":[0.003543548518791795,0.4229088127613068,-0.004424077924340963]},{"children":[72],"name":"RightFoot","rotation":[0.604443371295929,0.190591499209404,-0.08676469326019287,0.7686318755149841],"translation":[0.003060402115806937,0.429872989654541,-0.00207540369592607]},{"children":[73],"name":"RightToeBase","rotation":[0.1174017935991287,-0.01099646743386984,0.04670105502009392,0.9919248223304749],"translation":[-0.0003140948538202792,0.1127441450953484,-0.001061509130522609]},{"name":"RightToe_End","translation":[0.0009250926086679101,0.0985196903347969,-0.0001634946238482371]},{"mesh":0,"name":"AvatarBody","skin":0},{"mesh":1,"name":"AvatarEyelashes","skin":0},{"mesh":2,"name":"AvatarHead","skin":0},{"mesh":3,"name":"AvatarLeftCornea","skin":0},{"mesh":4,"name":"AvatarLeftEyeball","skin":0},{"mesh":5,"name":"AvatarRightCornea","skin":0},{"mesh":6,"name":"AvatarRightEyeball","skin":0},{"mesh":7,"name":"AvatarTeethLower","skin":0},{"mesh":8,"name":"AvatarTeethUpper","skin":0},{"mesh":9,"name":"glasses","skin":0},{"mesh":10,"name":"outfit_bottom","skin":0},{"mesh":11,"name":"outfit_shoes","skin":0},{"mesh":12,"name":"outfit_top","skin":0}],"scene":0,"scenes":[{"nodes":[0]}],"skins":[{"inverseBindMatrices":162,"joints":[1,2,3,4,5,6,7,8,9,10,11,12,13,14,15,16,17,18,19,20,21,22,23,24,25,26,27,28,29,30,31,32,33,34,35,36,37,38,39,40,41,42,43,44,45,46,47,48,49,50,51,52,53,54,55,56,57,58,59,60,61,62,63,64,65,66,67,68,69,70,71,72,73],"skeleton":1}],"textures":[{"source":0},{"source":1},{"source":2},{"source":3},{"source":4},{"source":5},{"source":6},{"source":7},{"source":8},{"source":9},{"source":10},{"source":11},{"source":12},{"source":13},{"source":14},{"source":15},{"source":16},{"source":17},{"source":18},{"source":19},{"source":20},{"source":21},{"source":22}]}